SplineFontDB: 3.2
FontName: KalimbaNotationN
FullName: KalimbaNotationN
FamilyName: KalimbaNotationN
Weight: Regular
Copyright: Copyright (c) 2022, Yuichiro Nakata
UComments: "2022-5-12: Created with FontForge (http://fontforge.org)"
Version: 001.000
ItalicAngle: 0
UnderlinePosition: -102
UnderlineWidth: 51
Ascent: 819
Descent: 205
InvalidEm: 0
LayerCount: 2
Layer: 0 0 "+gMyXYgAA" 1
Layer: 1 0 "+Uk2XYgAA" 0
XUID: [1021 882 799115803 17396]
OS2Version: 0
OS2_WeightWidthSlopeOnly: 0
OS2_UseTypoMetrics: 1
CreationTime: 1652340148
ModificationTime: 1659622330
OS2TypoAscent: 0
OS2TypoAOffset: 1
OS2TypoDescent: 0
OS2TypoDOffset: 1
OS2TypoLinegap: 0
OS2WinAscent: 0
OS2WinAOffset: 1
OS2WinDescent: 0
OS2WinDOffset: 1
HheadAscent: 0
HheadAOffset: 1
HheadDescent: 0
HheadDOffset: 1
OS2Vendor: 'PfEd'
MarkAttachClasses: 1
DEI: 91125
Encoding: ISO8859-1
UnicodeInterp: none
NameList: AGL For New Fonts
DisplaySize: -48
AntiAlias: 1
FitToEm: 0
WinInfo: 40 20 6
BeginPrivate: 0
EndPrivate
BeginChars: 256 22

StartChar: c
Encoding: 99 99 0
Width: 1000
VWidth: 1000
Flags: HW
LayerCount: 2
Fore
SplineSet
748.5 593 m 5
 748.5 730 l 5
 889.5 730 l 5
 889.5 593 l 5
 748.5 593 l 5
385.5 0 m 5
 385.5 645 l 5
 382.5 646 l 5
 123 545 l 5
 123 625 l 5
 385.5 730 l 5
 508.5 730 l 5
 508.5 0 l 5
 385.5 0 l 5
EndSplineSet
EndChar

StartChar: e
Encoding: 101 101 1
Width: 1000
VWidth: 1000
Flags: HW
LayerCount: 2
Fore
SplineSet
748.5 593 m 5
 748.5 730 l 5
 889.5 730 l 5
 889.5 593 l 5
 748.5 593 l 5
495 656 m 5
 495 658 l 5
 120 658 l 5
 120 730 l 5
 637.5 730 l 5
 637.5 658 l 5
 367.5 429 l 5
 367.5 427 l 5
 382.5 427 l 6
 473.5 427 540 410 582 376 c 132
 624 342 645 286.666992188 645 210 c 4
 645 63.3330078125 547.5 -10 352.5 -10 c 4
 279.5 -10 207 0 135 20 c 5
 135 107 l 5
 212 78.3330078125 277 64 330 64 c 4
 394 64 441.5 75.5 472.5 98.5 c 132
 503.5 121.5 519 158.666992188 519 210 c 4
 519 269.333007812 506.5 308.333007812 481.5 327 c 132
 456.5 345.666992188 406 355 330 355 c 6
 225 355 l 5
 225 427 l 5
 495 656 l 5
EndSplineSet
EndChar

StartChar: d
Encoding: 100 100 2
Width: 1000
VWidth: 1000
Flags: HW
LayerCount: 2
Fore
SplineSet
748.5 593 m 5
 748.5 730 l 5
 889.5 730 l 5
 889.5 593 l 5
 748.5 593 l 5
262.5 74 m 5
 262.5 72 l 5
 630 72 l 5
 630 0 l 5
 120 0 l 5
 120 72 l 5
 371 264 496.5 423.333007812 496.5 550 c 4
 496.5 627.333007812 450 666 357 666 c 4
 327 666 289 658.5 243 643.5 c 132
 197 628.5 156 610 120 588 c 5
 120 675 l 5
 195 718.333007812 280 740 375 740 c 4
 460 740 522.5 724.333007812 562.5 693 c 132
 602.5 661.666992188 622.5 614 622.5 550 c 4
 622.5 484 595.5 414.666992188 541.5 342 c 132
 487.5 269.333007812 394.5 180 262.5 74 c 5
EndSplineSet
EndChar

StartChar: f
Encoding: 102 102 3
Width: 1000
VWidth: 1000
Flags: HW
LayerCount: 2
Fore
SplineSet
748.5 593 m 5
 748.5 730 l 5
 889.5 730 l 5
 889.5 593 l 5
 748.5 593 l 5
439.5 590 m 5
 436.5 590 l 5
 174 249 l 5
 174 247 l 5
 439.5 247 l 5
 439.5 590 l 5
562.5 175 m 5
 562.5 0 l 5
 439.5 0 l 5
 439.5 175 l 5
 60 175 l 5
 60 257 l 5
 424.5 730 l 5
 562.5 730 l 5
 562.5 247 l 5
 690 247 l 5
 690 175 l 5
 562.5 175 l 5
EndSplineSet
EndChar

StartChar: g
Encoding: 103 103 4
Width: 1000
VWidth: 1000
Flags: HW
LayerCount: 2
Fore
SplineSet
748.5 593 m 5
 748.5 730 l 5
 889.5 730 l 5
 889.5 593 l 5
 748.5 593 l 5
270 430 m 5
 273 430 l 5
 306 450 350 460 405 460 c 4
 565 460 645 383.333007812 645 230 c 4
 645 146.666992188 620.25 85.8330078125 570.75 47.5 c 132
 521.25 9.1669921875 448.5 -10 352.5 -10 c 4
 278.5 -10 206 0 135 20 c 5
 135 107 l 5
 210 78.3330078125 280 64 345 64 c 4
 461 64 519 119.333007812 519 230 c 4
 519 334 471 386 375 386 c 4
 329 386 289 372.333007812 255 345 c 5
 142.5 345 l 5
 157.5 730 l 5
 615 730 l 5
 615 658 l 5
 280.5 658 l 5
 270 430 l 5
EndSplineSet
EndChar

StartChar: C
Encoding: 67 67 5
Width: 1000
VWidth: 1000
Flags: HW
LayerCount: 2
Fore
SplineSet
462.599609375 0 m 5
 462.599609375 645 l 5
 459 646 l 5
 147.599609375 545 l 5
 147.599609375 625 l 5
 462.599609375 730 l 5
 610.200195312 730 l 5
 610.200195312 0 l 5
 462.599609375 0 l 5
EndSplineSet
EndChar

StartChar: D
Encoding: 68 68 6
Width: 1000
VWidth: 1000
Flags: HW
LayerCount: 2
Fore
SplineSet
315 74 m 5
 315 72 l 5
 756 72 l 5
 756 0 l 5
 144 0 l 5
 144 72 l 5
 445.200195312 264 595.799804688 423.333007812 595.799804688 550 c 4
 595.799804688 627.333007812 540 666 428.400390625 666 c 4
 392.400390625 666 346.799804688 658.5 291.599609375 643.5 c 132
 236.400390625 628.5 187.200195312 610 144 588 c 5
 144 675 l 5
 234 718.333007812 336 740 450 740 c 4
 552 740 627 724.333007812 675 693 c 132
 723 661.666992188 747 614 747 550 c 4
 747 484 714.599609375 414.666992188 649.799804688 342 c 132
 585 269.333007812 473.400390625 180 315 74 c 5
EndSplineSet
EndChar

StartChar: E
Encoding: 69 69 7
Width: 1000
VWidth: 1000
Flags: HW
LayerCount: 2
Fore
SplineSet
594 656 m 5
 594 658 l 5
 144 658 l 5
 144 730 l 5
 765 730 l 5
 765 658 l 5
 441 429 l 5
 441 427 l 5
 459 427 l 6
 568.200195312 427 648 410 698.400390625 376 c 132
 748.799804688 342 774 286.666992188 774 210 c 4
 774 63.3330078125 657 -10 423 -10 c 4
 335.400390625 -10 248.400390625 0 162 20 c 5
 162 107 l 5
 254.400390625 78.3330078125 332.400390625 64 396 64 c 4
 472.799804688 64 529.799804688 75.5 567 98.5 c 132
 604.200195312 121.5 622.799804688 158.666992188 622.799804688 210 c 4
 622.799804688 269.333007812 607.799804688 308.333007812 577.799804688 327 c 132
 547.799804688 345.666992188 487.200195312 355 396 355 c 6
 270 355 l 5
 270 427 l 5
 594 656 l 5
EndSplineSet
EndChar

StartChar: F
Encoding: 70 70 8
Width: 1000
VWidth: 1000
Flags: HW
LayerCount: 2
Fore
SplineSet
527.400390625 590 m 5
 523.799804688 590 l 5
 208.799804688 249 l 5
 208.799804688 247 l 5
 527.400390625 247 l 5
 527.400390625 590 l 5
675 175 m 5
 675 0 l 5
 527.400390625 0 l 5
 527.400390625 175 l 5
 72 175 l 5
 72 257 l 5
 509.400390625 730 l 5
 675 730 l 5
 675 247 l 5
 828 247 l 5
 828 175 l 5
 675 175 l 5
EndSplineSet
EndChar

StartChar: G
Encoding: 71 71 9
Width: 1000
VWidth: 1000
Flags: HW
LayerCount: 2
Fore
SplineSet
324 430 m 5
 327.599609375 430 l 5
 367.200195312 450 420 460 486 460 c 4
 678 460 774 383.333007812 774 230 c 4
 774 146.666992188 744.299804688 85.8330078125 684.900390625 47.5 c 132
 625.5 9.1669921875 538.200195312 -10 423 -10 c 4
 334.200195312 -10 247.200195312 0 162 20 c 5
 162 107 l 5
 252 78.3330078125 336 64 414 64 c 4
 553.200195312 64 622.799804688 119.333007812 622.799804688 230 c 4
 622.799804688 334 565.200195312 386 450 386 c 4
 394.799804688 386 346.799804688 372.333007812 306 345 c 5
 171 345 l 5
 189 730 l 5
 738 730 l 5
 738 658 l 5
 336.599609375 658 l 5
 324 430 l 5
EndSplineSet
EndChar

StartChar: H
Encoding: 72 72 10
Width: 1000
VWidth: 1000
Flags: HW
LayerCount: 2
Fore
SplineSet
748.5 0 m 5
 748.5 137 l 5
 889.5 137 l 5
 889.5 0 l 5
 748.5 0 l 5
439.5 590 m 5
 436.5 590 l 5
 174 249 l 5
 174 247 l 5
 439.5 247 l 5
 439.5 590 l 5
562.5 175 m 5
 562.5 0 l 5
 439.5 0 l 5
 439.5 175 l 5
 60 175 l 5
 60 257 l 5
 424.5 730 l 5
 562.5 730 l 5
 562.5 247 l 5
 690 247 l 5
 690 175 l 5
 562.5 175 l 5
EndSplineSet
EndChar

StartChar: I
Encoding: 73 73 11
Width: 1000
VWidth: 1000
Flags: HW
LayerCount: 2
Fore
SplineSet
748.5 0 m 5
 748.5 137 l 5
 889.5 137 l 5
 889.5 0 l 5
 748.5 0 l 5
270 430 m 5
 273 430 l 5
 306 450 350 460 405 460 c 4
 565 460 645 383.333007812 645 230 c 4
 645 146.666992188 620.25 85.8330078125 570.75 47.5 c 132
 521.25 9.1669921875 448.5 -10 352.5 -10 c 4
 278.5 -10 206 0 135 20 c 5
 135 107 l 5
 210 78.3330078125 280 64 345 64 c 4
 461 64 519 119.333007812 519 230 c 4
 519 334 471 386 375 386 c 4
 329 386 289 372.333007812 255 345 c 5
 142.5 345 l 5
 157.5 730 l 5
 615 730 l 5
 615 658 l 5
 280.5 658 l 5
 270 430 l 5
EndSplineSet
EndChar

StartChar: A
Encoding: 65 65 12
Width: 1000
VWidth: 1000
Flags: HW
LayerCount: 2
Fore
SplineSet
513 740 m 4
 586.200195312 740 655.200195312 733.333007812 720 720 c 5
 720 643 l 5
 660 659.666992188 597 668 531 668 c 4
 447 668 386.400390625 651.833007812 349.200195312 619.5 c 132
 312 587.166992188 288.599609375 525.666992188 279 435 c 5
 282.599609375 435 l 5
 342.599609375 468.333007812 410.400390625 485 486 485 c 4
 590.400390625 485 667.5 466.333007812 717.299804688 429 c 132
 767.099609375 391.666992188 792 330.333007812 792 245 c 4
 792 155.666992188 764.099609375 90.8330078125 708.299804688 50.5 c 132
 652.5 10.1669921875 569.400390625 -10 459 -10 c 4
 381 -10 318.599609375 -0.5 271.799804688 18.5 c 132
 225 37.5 189 71.3330078125 163.799804688 120 c 132
 138.599609375 168.666992188 126 235.333007812 126 320 c 4
 126 425.333007812 141.299804688 509.333007812 171.900390625 572 c 132
 202.5 634.666992188 245.099609375 678.333007812 299.700195312 703 c 132
 354.299804688 727.666992188 425.400390625 740 513 740 c 4
459 62 m 4
 523.799804688 62 570.900390625 75 600.299804688 101 c 132
 629.700195312 127 644.400390625 175 644.400390625 245 c 4
 644.400390625 307.666992188 630.299804688 351.666992188 602.099609375 377 c 132
 573.900390625 402.333007812 529.200195312 415 468 415 c 4
 340.799804688 415 277.200195312 361.666992188 277.200195312 255 c 4
 277.200195312 183.666992188 292.200195312 133.666992188 322.200195312 105 c 132
 352.200195312 76.3330078125 397.799804688 62 459 62 c 4
EndSplineSet
EndChar

StartChar: B
Encoding: 66 66 13
Width: 1000
VWidth: 1000
Flags: HW
LayerCount: 2
Fore
SplineSet
621 656 m 5
 621 658 l 5
 135 658 l 5
 135 730 l 5
 765 730 l 5
 765 658 l 5
 611.400390625 460.666992188 485.400390625 241.333007812 387 0 c 5
 228.599609375 0 l 5
 329.400390625 235.333007812 460.200195312 454 621 656 c 5
EndSplineSet
EndChar

StartChar: a
Encoding: 97 97 14
Width: 1000
VWidth: 1000
Flags: HW
LayerCount: 2
Fore
SplineSet
748.5 593 m 5
 748.5 730 l 5
 889.5 730 l 5
 889.5 593 l 5
 748.5 593 l 5
427.5 740 m 4
 488.5 740 546 733.333007812 600 720 c 5
 600 643 l 5
 550 659.666992188 497.5 668 442.5 668 c 4
 372.5 668 322 651.833007812 291 619.5 c 132
 260 587.166992188 240.5 525.666992188 232.5 435 c 5
 235.5 435 l 5
 285.5 468.333007812 342 485 405 485 c 4
 492 485 556.25 466.333007812 597.75 429 c 132
 639.25 391.666992188 660 330.333007812 660 245 c 4
 660 155.666992188 636.75 90.8330078125 590.25 50.5 c 132
 543.75 10.1669921875 474.5 -10 382.5 -10 c 4
 317.5 -10 265.5 -0.5 226.5 18.5 c 132
 187.5 37.5 157.5 71.3330078125 136.5 120 c 132
 115.5 168.666992188 105 235.333007812 105 320 c 4
 105 425.333007812 117.75 509.333007812 143.25 572 c 132
 168.75 634.666992188 204.25 678.333007812 249.75 703 c 132
 295.25 727.666992188 354.5 740 427.5 740 c 4
382.5 62 m 4
 436.5 62 475.75 75 500.25 101 c 132
 524.75 127 537 175 537 245 c 4
 537 307.666992188 525.25 351.666992188 501.75 377 c 132
 478.25 402.333007812 441 415 390 415 c 4
 284 415 231 361.666992188 231 255 c 4
 231 183.666992188 243.5 133.666992188 268.5 105 c 132
 293.5 76.3330078125 331.5 62 382.5 62 c 4
EndSplineSet
EndChar

StartChar: b
Encoding: 98 98 15
Width: 1000
VWidth: 1000
Flags: HW
LayerCount: 2
Fore
SplineSet
748.5 593 m 5
 748.5 730 l 5
 889.5 730 l 5
 889.5 593 l 5
 748.5 593 l 5
517.5 656 m 5
 517.5 658 l 5
 112.5 658 l 5
 112.5 730 l 5
 637.5 730 l 5
 637.5 658 l 5
 509.5 460.666992188 404.5 241.333007812 322.5 0 c 5
 190.5 0 l 5
 274.5 235.333007812 383.5 454 517.5 656 c 5
EndSplineSet
EndChar

StartChar: J
Encoding: 74 74 16
Width: 1000
VWidth: 1000
Flags: HW
LayerCount: 2
Fore
SplineSet
748.5 0 m 5
 748.5 137 l 5
 889.5 137 l 5
 889.5 0 l 5
 748.5 0 l 5
427.5 740 m 4
 488.5 740 546 733.333007812 600 720 c 5
 600 643 l 5
 550 659.666992188 497.5 668 442.5 668 c 4
 372.5 668 322 651.833007812 291 619.5 c 132
 260 587.166992188 240.5 525.666992188 232.5 435 c 5
 235.5 435 l 5
 285.5 468.333007812 342 485 405 485 c 4
 492 485 556.25 466.333007812 597.75 429 c 132
 639.25 391.666992188 660 330.333007812 660 245 c 4
 660 155.666992188 636.75 90.8330078125 590.25 50.5 c 132
 543.75 10.1669921875 474.5 -10 382.5 -10 c 4
 317.5 -10 265.5 -0.5 226.5 18.5 c 132
 187.5 37.5 157.5 71.3330078125 136.5 120 c 132
 115.5 168.666992188 105 235.333007812 105 320 c 4
 105 425.333007812 117.75 509.333007812 143.25 572 c 132
 168.75 634.666992188 204.25 678.333007812 249.75 703 c 132
 295.25 727.666992188 354.5 740 427.5 740 c 4
382.5 62 m 4
 436.5 62 475.75 75 500.25 101 c 132
 524.75 127 537 175 537 245 c 4
 537 307.666992188 525.25 351.666992188 501.75 377 c 132
 478.25 402.333007812 441 415 390 415 c 4
 284 415 231 361.666992188 231 255 c 4
 231 183.666992188 243.5 133.666992188 268.5 105 c 132
 293.5 76.3330078125 331.5 62 382.5 62 c 4
EndSplineSet
EndChar

StartChar: K
Encoding: 75 75 17
Width: 1000
VWidth: 1000
Flags: HW
LayerCount: 2
Fore
SplineSet
748.5 0 m 5
 748.5 137 l 5
 889.5 137 l 5
 889.5 0 l 5
 748.5 0 l 5
517.5 656 m 5
 517.5 658 l 5
 112.5 658 l 5
 112.5 730 l 5
 637.5 730 l 5
 637.5 658 l 5
 509.5 460.666992188 404.5 241.333007812 322.5 0 c 5
 190.5 0 l 5
 274.5 235.333007812 383.5 454 517.5 656 c 5
EndSplineSet
EndChar

StartChar: three
Encoding: 51 51 18
Width: 1000
VWidth: 1000
Flags: HW
LayerCount: 2
Fore
SplineSet
748.5 306 m 5
 748.5 443 l 5
 889.5 443 l 5
 889.5 306 l 5
 748.5 306 l 5
748.5 593 m 5
 748.5 730 l 5
 889.5 730 l 5
 889.5 593 l 5
 748.5 593 l 5
495 656 m 1
 495 658 l 1
 120 658 l 1
 120 730 l 1
 637.5 730 l 1
 637.5 658 l 1
 367.5 429 l 1
 367.5 427 l 1
 382.5 427 l 2
 473.5 427 540 410 582 376 c 128
 624 342 645 286.666992188 645 210 c 0
 645 63.3330078125 547.5 -10 352.5 -10 c 0
 279.5 -10 207 0 135 20 c 1
 135 107 l 1
 212 78.3330078125 277 64 330 64 c 0
 394 64 441.5 75.5 472.5 98.5 c 128
 503.5 121.5 519 158.666992188 519 210 c 0
 519 269.333007812 506.5 308.333007812 481.5 327 c 128
 456.5 345.666992188 406 355 330 355 c 2
 225 355 l 1
 225 427 l 1
 495 656 l 1
EndSplineSet
EndChar

StartChar: two
Encoding: 50 50 19
Width: 1000
VWidth: 1000
Flags: HW
LayerCount: 2
Fore
SplineSet
748.5 306 m 5
 748.5 443 l 5
 889.5 443 l 5
 889.5 306 l 5
 748.5 306 l 5
748.5 593 m 5
 748.5 730 l 5
 889.5 730 l 5
 889.5 593 l 5
 748.5 593 l 5
262.5 74 m 1
 262.5 72 l 1
 630 72 l 1
 630 0 l 1
 120 0 l 1
 120 72 l 1
 371 264 496.5 423.333007812 496.5 550 c 0
 496.5 627.333007812 450 666 357 666 c 0
 327 666 289 658.5 243 643.5 c 128
 197 628.5 156 610 120 588 c 1
 120 675 l 1
 195 718.333007812 280 740 375 740 c 0
 460 740 522.5 724.333007812 562.5 693 c 128
 602.5 661.666992188 622.5 614 622.5 550 c 0
 622.5 484 595.5 414.666992188 541.5 342 c 128
 487.5 269.333007812 394.5 180 262.5 74 c 1
EndSplineSet
EndChar

StartChar: one
Encoding: 49 49 21
Width: 1000
VWidth: 1000
Flags: HW
LayerCount: 2
Fore
SplineSet
748.5 306 m 5
 748.5 443 l 5
 889.5 443 l 5
 889.5 306 l 5
 748.5 306 l 5
748.5 593 m 5
 748.5 730 l 5
 889.5 730 l 5
 889.5 593 l 5
 748.5 593 l 5
385.5 0 m 1
 385.5 645 l 1
 382.5 646 l 1
 123 545 l 1
 123 625 l 1
 385.5 730 l 1
 508.5 730 l 1
 508.5 0 l 1
 385.5 0 l 1
EndSplineSet
EndChar
